# xmcd CD database file
#
# Track frame offsets:
#	150
#	19455
#	38715
#	64078
#	88762
#	107335
#	137551
#	180391
#
# Disc length: 2657 seconds
#
# Revision: 0
# Processed by: cddbd v1.5.1PL2 Copyright (c) Steve Scherf et al.
# Submitted via: CDex 1.51
#
DISCID=600a5f08
DTITLE=always swinging' and poppin' - octet
DYEAR=2005
DGENRE=Jazz
TTITLE0=hurry up
TTITLE1=jug love
TTITLE2=all of me
TTITLE3=dreamer
TTITLE4=joy dance
TTITLE5=the time is now
TTITLE6=cool bill
TTITLE7=old fashioned fun
EXTD=YEAR: 2005
EXTT0=
EXTT1=
EXTT2=
EXTT3=
EXTT4=
EXTT5=
EXTT6=
EXTT7=
PLAYORDER=
